<svg width="980" height="551" xmlns="http://www.w3.org/2000/svg" xmlns:xlink="http://www.w3.org/1999/xlink">
<g data-drauu_index="0"><defs><marker id="8a66ad24-48f5-f70e-43db-45a7ff02b118" viewBox="0 -5 10 10" refX="5" refY="0" markerWidth="4" markerHeight="4" orient="auto"><path fill="#ff595e" d="M0,-5L10,0L0,5"></path></marker></defs><line fill="transparent" stroke="#ff595e" stroke-width="4" stroke-linecap="round" x1="273.60" y1="302.86" x2="724.18" y2="302.86" marker-end="url(#8a66ad24-48f5-f70e-43db-45a7ff02b118)"></line></g><g data-drauu_index="1"><defs><marker id="4380731d-0164-4a48-2bbb-7f979538b7ee" viewBox="0 -5 10 10" refX="5" refY="0" markerWidth="4" markerHeight="4" orient="auto"><path fill="#ff595e" d="M0,-5L10,0L0,5"></path></marker></defs><line fill="transparent" stroke="#ff595e" stroke-width="4" stroke-linecap="round" x1="269.73" y1="362.37" x2="724.95" y2="362.37" marker-end="url(#4380731d-0164-4a48-2bbb-7f979538b7ee)"></line></g><path fill="#8ac926" d="M 283.46 335.89 Q 283.46 335.89 283.45 335.89 283.45 335.89 283.44 335.90 283.44 335.90 283.45 335.89 Z" data-drauu_index="2"></path><ellipse fill="transparent" stroke="#ff595e" stroke-width="4" stroke-linecap="round" cx="280.55" cy="334.54" rx="1.55" ry="1.55" data-drauu_index="5"></ellipse><ellipse fill="transparent" stroke="#ff595e" stroke-width="4" stroke-linecap="round" cx="294.47" cy="334.54" rx="1.55" ry="1.55" data-drauu_index="6"></ellipse><ellipse fill="transparent" stroke="#ff595e" stroke-width="4" stroke-linecap="round" cx="307.60" cy="333.77" rx="1.55" ry="1.55" data-drauu_index="7"></ellipse><line fill="transparent" stroke="#8ac926" stroke-width="8" stroke-linecap="round" x1="600.52" y1="494.53" x2="730.36" y2="406.42" data-drauu_index="9"></line><line fill="transparent" stroke="#ff595e" stroke-width="8" stroke-linecap="round" x1="724.95" y1="390.96" x2="746.59" y2="419.56" data-drauu_index="10"></line><line fill="transparent" stroke="#ff595e" stroke-width="8" stroke-linecap="round" x1="749.68" y1="391.74" x2="720.31" y2="417.24" data-drauu_index="12"></line>
</svg>